<?xml version="1.0" standalone="no"?>
<!DOCTYPE svg PUBLIC "-//W3C//DTD SVG 20010904//EN"
 "http://www.w3.org/TR/2001/REC-SVG-20010904/DTD/svg10.dtd">
<svg version="1.0" xmlns="http://www.w3.org/2000/svg"
 width="1080.000000pt" height="1080.000000pt" viewBox="0 0 1080.000000 1080.000000"
 preserveAspectRatio="xMidYMid meet">

<g transform="translate(0.000000,1080.000000) scale(0.100000,-0.100000)"
fill="#000000" stroke="none">
<path d="M5170 9220 c-30 -4 -109 -13 -175 -20 -865 -85 -1699 -488 -2316
-1117 -150 -153 -219 -232 -329 -378 -422 -562 -682 -1218 -750 -1895 -6 -63
-15 -148 -21 -188 -5 -40 -9 -140 -9 -222 0 -82 4 -182 9 -222 6 -40 15 -125
21 -188 87 -865 487 -1694 1117 -2311 243 -238 433 -385 723 -560 462 -278
914 -433 1500 -516 180 -25 740 -25 920 0 586 83 1038 238 1500 516 290 175
480 322 723 560 561 550 939 1263 1077 2031 49 269 54 342 54 690 0 348 -5
421 -54 690 -88 492 -281 977 -556 1395 -389 594 -920 1059 -1559 1366 -391
187 -813 306 -1235 349 -63 6 -148 15 -188 21 -85 11 -372 10 -452 -1z m660
-105 c263 -32 477 -78 717 -156 1229 -398 2170 -1406 2484 -2661 76 -304 103
-542 103 -898 0 -356 -27 -594 -103 -898 -337 -1344 -1389 -2396 -2733 -2733
-304 -76 -542 -103 -898 -103 -356 0 -594 27 -898 103 -1077 270 -1989 1010
-2467 2004 -192 399 -297 758 -352 1207 -24 202 -24 638 0 840 56 453 161 812
356 1215 555 1146 1679 1941 2936 2079 216 24 215 24 475 21 144 -2 300 -10
380 -20z"/>
<path d="M3835 6253 l-850 -853 852 -852 853 -853 487 488 488 487 -487 487
-488 488 -122 -123 -123 -122 365 -365 365 -365 -246 -246 -245 -245 -608 612
-609 611 609 609 609 609 92 -92 93 -93 123 123 122 122 -215 213 -215 212
-850 -852z"/>
<path d="M5660 6615 l-485 -485 488 -487 487 -488 122 123 123 124 -362 357
c-200 197 -363 362 -363 367 0 5 108 117 239 248 l239 239 28 -21 c16 -11 291
-283 611 -604 l583 -583 -610 -610 -610 -610 -90 90 -90 90 -123 -123 -122
-122 213 -212 212 -213 830 830 830 830 0 45 0 45 -828 828 c-455 455 -829
827 -832 827 -3 0 -223 -218 -490 -485z"/>
</g>
</svg>
